<svg width="32" height="32" viewBox="0 0 32 32" fill="none" xmlns="http://www.w3.org/2000/svg">
<path d="M11.1586 10.8062C11.4766 10.4079 12.1267 10.6292 12.1267 11.1357V16.4114L12.1268 27.5593C12.1268 27.9118 11.7855 28.1673 11.4403 28.0733L0.669262 25.1405C0.29626 25.039 0.148524 24.5965 0.387626 24.2971L11.1586 10.8062Z" fill="#2C38C1"/>
<path d="M20.8412 10.8062C20.5232 10.4079 19.8731 10.6292 19.8731 11.1357V16.4114L19.873 27.5593C19.873 27.9118 20.2143 28.1673 20.5595 28.0733L31.3306 25.1405C31.7036 25.039 31.8513 24.5965 31.6122 24.2971L20.8412 10.8062Z" fill="#19B2E8"/>
<path d="M15.9993 29.3334C23.3631 29.3334 29.3327 23.3639 29.3327 16.0001C29.3327 8.63628 23.3631 2.66675 15.9993 2.66675C8.63555 2.66675 2.66602 8.63628 2.66602 16.0001C2.66602 23.3639 8.63555 29.3334 15.9993 29.3334Z" fill="#2C38C1"/>
<path fill-rule="evenodd" clip-rule="evenodd" d="M18.5915 10.5099L15.7406 14.1036L15.7021 14.2195L12.4181 15.2234C12.2455 15.2523 12.0816 15.3157 11.9407 15.4083C11.4762 15.714 11.3723 16.2549 11.7087 16.6161C11.9131 16.8364 12.2461 16.9481 12.5948 16.9139L14.9585 16.6761C15.0001 16.6718 15.0404 16.6657 15.0813 16.6577L16.0097 16.4723L15.9889 16.2744L15.6172 16.0685L14.1057 16.4244C14.0822 16.4298 14.0591 16.4339 14.0353 16.4367L12.6817 16.5973C12.482 16.6203 12.2913 16.5449 12.1743 16.3963C11.9817 16.1525 12.0411 15.7875 12.3071 15.5811C12.3878 15.5187 12.4817 15.4759 12.5805 15.4564L13.9508 15.1907L15.3065 14.6191C15.3295 14.6093 15.3532 14.6011 15.3771 14.5941L17.0603 14.1037L20.1169 12.3266C20.3787 12.1744 20.7017 12.2247 20.8748 12.4448L22.2993 14.2597C22.4722 14.4799 22.4423 14.8029 22.2291 15.0175L21.5453 15.7057L20.8666 18.6829L21.8673 21.8026C21.9583 22.0863 21.8021 22.4067 21.5098 22.5359C21.2028 22.6713 20.8597 22.5467 20.7432 22.2574L19.6309 19.4961L19.3022 19.5721L18.4239 23.5051C18.3546 23.8113 18.0534 24.0283 17.7405 23.997C17.4171 23.9651 17.2017 23.6815 17.2589 23.3639L17.9309 19.7087L17.6809 19.7108L15.7761 23.5545C15.631 23.841 15.2875 23.9819 14.9977 23.8731C14.6996 23.7613 14.5697 23.4282 14.7071 23.1291L14.7125 23.1173L14.7131 23.1163L16.5413 19.2246L16.3445 19.0503L13.6383 22.0859C13.4219 22.327 13.0611 22.3737 12.8191 22.192C12.5684 22.0039 12.5378 21.6419 12.7501 21.3835L15.6775 17.8505L15.8221 17.4438L14.4386 17.8787L11.4209 19.7195C11.1623 19.8772 10.8383 19.8337 10.6606 19.6173L9.19739 17.8328C9.01986 17.6163 9.04273 17.2927 9.25126 17.0736L9.92013 16.3713L10.5348 13.3805L9.46726 10.2825C9.37019 10.0008 9.51959 9.67707 9.80899 9.5418C10.1131 9.4 10.4587 9.5174 10.5814 9.80413L11.7527 12.5415L12.0797 12.4586L12.8734 8.50803C12.9361 8.20036 13.2325 7.97718 13.5461 8.00186C13.8701 8.02688 14.0915 8.30591 14.0412 8.62473L13.4479 12.2931L13.6977 12.2858L15.5196 8.40297C15.6585 8.11346 15.9989 7.96542 16.2909 8.06812C16.5913 8.1736 16.7283 8.50388 16.5975 8.80582L16.5923 8.81778L16.5917 8.8188L14.8475 12.748L15.048 12.9181L17.6883 9.82633C17.8995 9.58073 18.2593 9.52646 18.5051 9.703C18.7598 9.8858 18.7982 10.2471 18.5915 10.5099Z" fill="white"/>
</svg>
