<svg width="1920" height="401" viewBox="0 0 1920 401" fill="none" xmlns="http://www.w3.org/2000/svg">
<g clip-path="url(#clip0_1259_25773)">
<path d="M1 184C1 123.022 1 62.0439 1 1C331.026 1 661.052 1 991.381 1.36527C990.119 2.15243 988.577 2.79161 986.985 2.9632C967.1 5.10621 948.107 10.6451 930.09 19.0856C904.167 31.2299 881.548 47.8407 862.634 69.6293C851.082 82.9369 841.008 97.1993 833.792 113.061C827.454 126.994 822.281 141.671 818.515 156.507C813.84 174.928 812.203 193.813 813.75 213.057C814.948 227.955 816.972 242.536 820.975 256.904C826.603 277.102 835.228 295.947 846.916 313.292C857.438 328.906 869.574 343.264 884.512 354.858C894.529 362.634 904.678 370.493 915.682 376.692C937.344 388.894 960.547 397.226 985.469 400.1C986.045 400.166 986.493 401.342 987 402C658.452 402 329.904 402 1 402C1 340.641 1 279.282 1.35384 217.573C2.14215 218.066 2.56529 218.915 3.01285 219.751C6.63678 226.518 10.2653 233.283 14.0283 240.357C19.4278 245.148 24.6914 249.63 30.1178 254.424C36.1867 257.102 42.0927 259.467 48.4162 261.906C60.1089 264.487 71.4391 265.208 82.6622 262.013C88.0211 260.488 93.1322 258.107 98.4089 256.266C99.6308 255.84 101.071 256.039 102.411 255.951C102.329 256.967 102.248 257.984 102.096 259.417C102.52 266.482 98.141 270.971 94.5772 276.09C85.6613 285.25 74.5802 288.327 62.6598 288.911C57.4647 289.165 52.2218 288.444 46.7115 288.096C45.6389 288.004 44.8552 287.983 43.8667 287.773C43.1435 287.447 42.6252 287.308 41.858 287.098C40.7599 287.002 39.9108 286.977 38.8562 286.767C38.1337 286.444 37.6166 286.307 36.7475 286.096C30.1547 284.423 23.914 282.823 17.0108 281.054C15.4154 287.294 13.791 293.647 12.0963 300.397C13.3711 301.849 14.5633 303.441 16.0857 303.875C28.0166 307.279 40.0257 309.633 52.577 310.369C64.1828 311.05 75.5973 311.25 86.8699 308.853C101.663 305.706 113.864 297.812 122.066 285.095C125.812 279.288 127.991 272.259 129.848 265.501C131.859 258.181 133.721 250.544 133.818 243.022C134.242 210.235 134 177.439 134 144.647C134 142.876 134 141.105 134 139.279C124.024 139.279 114.617 139.279 105.167 139.279C105.167 141.371 105.167 143.186 105.088 145.334C103.442 145.353 101.807 145.223 100.318 144.689C95.2098 142.858 90.1525 140.885 84.8709 138.776C84.1456 138.448 83.6251 138.308 82.8049 138.097C81.6841 137.978 80.863 137.931 79.8256 137.542C71.0731 137.188 62.5368 137.177 53.6064 137.105C52.1331 137.362 51.0685 137.748 49.9724 137.991C41.1976 139.939 32.8923 142.91 25.6391 149.032C21.2022 153.744 17.0773 158.318 12.5904 162.946C9.15529 168.849 6.09042 174.703 3.00213 180.544C2.38032 181.72 1.66968 182.849 1 184ZM566.948 214.027C566.966 208.197 566.858 202.364 567.03 196.538C567.277 188.156 565.026 180.326 561.417 172.979C545.215 139.996 511.455 130.439 480.198 139.481C474.336 141.177 468.826 144.094 462.905 146.551C462.905 144.097 462.905 141.797 462.905 139.251C453.274 139.251 443.871 139.251 434.233 139.251C434.233 202.812 434.233 266.182 434.233 329.732C443.851 329.732 453.24 329.732 462.885 329.732C462.885 305.856 462.885 282.247 462.885 259.816C473.28 262.538 483.569 266.332 494.172 267.706C505.179 269.133 516.4 268.294 527.191 264.135C537.814 260.042 546.371 253.286 553.47 244.815C560.66 236.235 564.932 226.04 566.948 214.027ZM720.066 237.619C727.597 228.356 730.311 217.252 730.861 205.814C731.817 185.95 724.9 169.068 710.031 155.455C690.143 137.247 667.105 132.707 641.445 138.925C628.158 142.145 617.393 149.415 608.044 159.34C592.467 175.878 588.286 195.359 592.565 216.985C595.113 229.86 602.35 240.141 611.679 249.325C629.009 266.386 650.374 270.387 673.078 267.66C692.787 265.293 708.19 254.311 720.066 237.619ZM336.409 268C348.19 268.273 358.523 263.726 369.008 257.665C369.008 261.058 369.008 263.802 369.008 266.744C378.814 266.744 388.208 266.744 397.724 266.744C397.724 224.111 397.724 181.734 397.724 139.314C388.055 139.314 378.665 139.314 369 139.314C369 141.436 369 143.245 369 145.055C369 171.874 368.877 198.695 369.113 225.513C369.156 230.377 367.266 233.118 363.31 235.318C352.791 241.169 341.907 244.182 329.655 242.121C318.914 240.313 311.504 234.711 308.19 224.637C306.235 218.695 305.252 212.199 305.138 205.929C304.769 185.446 305 164.952 305 144.462C305 142.708 305 140.954 305 139.388C295.237 139.388 286.177 139.388 277 139.388C277 164.427 276.869 189.079 277.092 213.728C277.147 219.909 277.844 226.183 279.101 232.236C282.285 247.569 290.969 258.569 305.82 264.397C315.407 268.16 325.387 268.245 336.409 268ZM170 189.5C170 215.245 170 240.99 170 266.644C180.033 266.644 189.423 266.644 199 266.644C199 264.303 198.973 262.316 199.004 260.329C199.331 239.415 199.284 218.486 200.145 197.594C200.654 185.243 208.382 172.056 222.563 168.013C231.644 165.424 240.694 166.574 249.501 168.76C250.011 160.946 250.596 153.38 250.974 145.803C251.354 138.179 251.282 138.027 243.515 137.053C240.219 136.639 236.823 136.895 233.478 137.015C220.887 137.469 211.1 143.492 202.928 152.616C201.774 153.904 200.789 155.343 199.725 156.712C199.408 156.535 199.091 156.358 198.774 156.18C198.774 150.572 198.774 144.964 198.774 139.306C189.071 139.306 179.682 139.306 170 139.306C170 155.906 170 172.203 170 189.5Z" fill="white"/>
<path d="M1602 402C1563.31 402 1524.62 402 1485.55 401.677C1487.01 398.473 1488.71 395.482 1490.75 392.739C1493.61 388.885 1496.85 385.31 1499.69 381.442C1503.32 376.49 1506.53 371.218 1510.28 366.363C1513.29 362.475 1517.09 359.201 1520.08 355.302C1525.46 348.279 1530.32 340.854 1535.72 333.843C1546.58 319.736 1557.72 305.844 1568.63 291.771C1579.52 277.717 1590.19 263.488 1601.1 249.448C1614.43 232.293 1627.95 215.289 1641.22 198.087C1642.07 196.982 1642.19 194.173 1641.39 193.108C1633.23 182.283 1624.82 171.652 1616.47 160.972C1606.32 147.976 1596.13 135.003 1586.01 121.985C1577.49 111.034 1569.07 100.004 1560.55 89.0601C1550.41 76.0457 1540.18 63.1006 1530.02 50.0984C1521.18 38.7775 1512.32 27.4719 1503.6 16.0518C1499.88 11.1756 1496.52 6.02561 1493 1.00003C1531.69 1.00002 1570.37 1.00002 1609.54 1.36734C1615.57 8.8829 1621.14 16.0273 1626.69 23.1802C1637.11 36.6063 1647.55 50.0249 1657.95 63.4703C1666.74 74.8401 1675.41 86.3069 1684.29 97.6097C1690.04 104.94 1696.08 112.053 1702.3 119.646C1708.74 111.261 1714.47 103.731 1720.26 96.2485C1730.56 82.9555 1740.87 69.6703 1751.22 56.4221C1759.98 45.2187 1768.87 34.1208 1777.58 22.8829C1783.16 15.676 1788.53 8.30015 1794 1C1833.02 1.00002 1872.04 1.00002 1911.52 1.35737C1899.14 18.1758 1886.24 34.6063 1873.44 51.1059C1858.73 70.0563 1844.18 89.1223 1829.42 108.029C1822.34 117.09 1814.87 125.836 1807.74 134.852C1804.69 138.702 1802.24 143.023 1799.2 146.874C1792.87 154.877 1786.31 162.693 1779.89 170.618C1775.9 175.544 1772.07 180.609 1768 185.47C1760.92 193.934 1760.82 196.302 1767.01 204.119C1777.21 216.994 1787.33 229.941 1797.42 242.904C1810.11 259.213 1822.72 275.585 1835.41 291.897C1848.36 308.536 1861.37 325.124 1874.32 341.752C1887.54 358.706 1900.69 375.709 1913.96 392.616C1916.05 395.279 1918.64 397.549 1921 400C1921.62 402.469 1919.85 401.993 1918.52 401.994C1909.55 402.005 1900.58 402 1891.61 402C1862.39 402 1833.16 402 1803.46 401.641C1790.1 384.47 1777.29 367.601 1764.32 350.861C1746.62 328.034 1728.8 305.299 1711.02 282.542C1708.14 278.869 1705.15 275.291 1701.71 271.054C1700.19 273.51 1699.27 275.372 1698.01 276.961C1691.97 284.564 1685.78 292.045 1679.77 299.668C1676.34 304.021 1673.27 308.659 1669.82 313.002C1663.97 320.373 1657.85 327.525 1652.06 334.94C1648.54 339.445 1645.62 344.417 1642.1 348.92C1635.92 356.822 1629.47 364.51 1623.17 372.315C1619.18 377.245 1615.06 382.077 1611.37 387.224C1607.99 391.961 1605.1 397.06 1602 402Z" fill="#6E0AD6"/>
<path d="M987.468 402C986.492 401.342 986.044 400.166 985.468 400.1C960.547 397.226 937.344 388.894 915.682 376.692C904.678 370.493 894.529 362.634 884.511 354.858C869.574 343.264 857.437 328.906 846.915 313.292C835.228 295.947 826.602 277.102 820.975 256.904C816.971 242.536 814.947 227.955 813.75 213.057C812.202 193.813 813.839 174.928 818.514 156.507C822.28 141.671 827.453 126.994 833.792 113.061C841.008 97.1993 851.081 82.9368 862.633 69.6293C881.547 47.8407 904.166 31.2299 930.089 19.0856C948.107 10.6451 967.099 5.1062 986.984 2.96319C988.577 2.7916 990.119 2.15242 991.842 1.36526C1006.35 0.999987 1020.71 0.999988 1035.69 1.36529C1040.14 2.48406 1043.94 3.41847 1047.79 3.96035C1066.45 6.58435 1084.1 12.5841 1100.99 20.6129C1118.01 28.6963 1133.3 39.4257 1147.58 51.8296C1160.5 63.0482 1171.39 75.9083 1180.84 89.9188C1192.34 106.95 1201.02 125.485 1206.68 145.325C1210.82 159.81 1213.6 174.538 1213.97 189.633C1214.16 197.642 1214.12 205.662 1213.96 213.672C1213.85 218.937 1214.05 224.367 1212.84 229.42C1209.23 244.534 1205.98 259.852 1200.77 274.442C1192.08 298.815 1178.04 320.235 1160.32 339.123C1147.91 352.355 1133.93 363.725 1118.38 373.11C1098.6 385.047 1077.49 393.592 1054.76 398.043C1049.13 399.146 1043.58 400.67 1038 402C1021.31 402 1004.62 402 987.468 402ZM899.999 179.57C899.332 183.919 898.018 188.284 898.129 192.613C898.389 202.802 898.567 213.094 900.153 223.127C903.486 244.21 913.047 262.644 927.157 278.499C938.582 291.337 952.225 301.309 968.222 308.123C991.864 318.193 1016.12 320.747 1040.97 314.422C1065.47 308.187 1086.13 295.621 1102.64 276.035C1119.1 256.501 1128.06 234.021 1129.71 208.926C1130.43 197.938 1129.12 186.497 1126.77 175.691C1121.01 149.286 1107.09 127.265 1085.88 110.662C1063.43 93.0912 1037.72 84.3128 1008.75 85.8873C996.728 86.5409 985.246 88.7073 973.955 92.8887C945.517 103.42 924.387 122.255 910.72 149.059C905.984 158.345 903.513 168.786 899.999 179.57Z" fill="#6E0AD6"/>
<path d="M1492.53 1.00001C1496.52 6.02559 1499.89 11.1756 1503.61 16.0518C1512.32 27.4719 1521.18 38.7775 1530.02 50.0984C1540.18 63.1006 1550.41 76.0457 1560.55 89.0601C1569.07 100.004 1577.49 111.034 1586.01 121.985C1596.13 135.003 1606.32 147.976 1616.47 160.972C1624.82 171.652 1633.23 182.283 1641.39 193.108C1642.19 194.173 1642.07 196.982 1641.22 198.087C1627.95 215.289 1614.43 232.293 1601.1 249.448C1590.19 263.488 1579.52 277.717 1568.63 291.771C1557.72 305.844 1546.58 319.736 1535.72 333.843C1530.32 340.854 1525.46 348.279 1520.08 355.302C1517.09 359.201 1513.29 362.475 1510.29 366.362C1506.53 371.218 1503.32 376.49 1499.69 381.442C1496.85 385.31 1493.61 388.885 1490.75 392.739C1488.72 395.482 1487.02 398.473 1485.08 401.677C1475.65 402 1466.29 402 1456.56 401.668C1476.8 374.856 1497.42 348.375 1518.78 320.95C1456.01 320.95 1394.66 320.95 1334 320.95C1334 214.015 1334 107.507 1334 1C1386.69 1 1439.38 1 1492.53 1.00001Z" fill="white"/>
<path d="M1333.53 1C1334 107.507 1334 214.015 1334 320.95C1394.66 320.95 1456.01 320.95 1518.78 320.95C1497.42 348.375 1476.8 374.856 1456.09 401.668C1385.65 402 1315.29 402 1244.47 401.531C1244 267.708 1244 134.354 1244 1C1273.69 1 1303.38 1 1333.53 1Z" fill="#6E0AD6"/>
<path d="M1921 399.531C1918.64 397.549 1916.05 395.279 1913.96 392.616C1900.69 375.709 1887.54 358.706 1874.33 341.752C1861.37 325.124 1848.36 308.536 1835.41 291.897C1822.72 275.585 1810.11 259.212 1797.42 242.904C1787.33 229.941 1777.22 216.994 1767.02 204.119C1760.82 196.302 1760.92 193.934 1768.01 185.47C1772.07 180.609 1775.9 175.544 1779.89 170.618C1786.32 162.693 1792.88 154.877 1799.2 146.874C1802.24 143.023 1804.69 138.702 1807.74 134.852C1814.87 125.836 1822.35 117.09 1829.42 108.029C1844.18 89.1223 1858.74 70.0562 1873.44 51.1058C1886.25 34.6063 1899.14 18.1758 1912 1.35735C1915 1 1917.99 1 1921 1C1921 133.688 1921 266.375 1921 399.531Z" fill="white"/>
<path d="M1243.53 1C1244 134.354 1244 267.708 1244 401.531C1175.64 402 1107.29 402 1038.47 402C1043.58 400.67 1049.13 399.146 1054.76 398.043C1077.49 393.592 1098.6 385.047 1118.37 373.11C1133.93 363.725 1147.91 352.355 1160.32 339.123C1178.04 320.235 1192.08 298.815 1200.77 274.442C1205.98 259.852 1209.23 244.534 1212.84 229.42C1214.05 224.367 1213.85 218.937 1213.95 213.672C1214.12 205.662 1214.16 197.642 1213.96 189.633C1213.6 174.538 1210.82 159.81 1206.68 145.325C1201.02 125.485 1192.34 106.95 1180.84 89.9188C1171.39 75.9083 1160.5 63.0482 1147.58 51.8296C1133.3 39.4257 1118.01 28.6963 1100.99 20.613C1084.09 12.5841 1066.45 6.58437 1047.79 3.96037C1043.94 3.41849 1040.14 2.48407 1036.16 1.3653C1105.02 1 1174.04 1 1243.53 1Z" fill="white"/>
<path d="M1602.47 402C1605.1 397.06 1607.99 391.961 1611.38 387.224C1615.06 382.077 1619.18 377.245 1623.17 372.315C1629.47 364.51 1635.92 356.822 1642.1 348.919C1645.62 344.417 1648.54 339.445 1652.06 334.94C1657.85 327.525 1663.97 320.373 1669.82 313.001C1673.27 308.659 1676.34 304.021 1679.77 299.668C1685.78 292.045 1691.97 284.564 1698.01 276.961C1699.27 275.372 1700.19 273.51 1701.71 271.054C1705.15 275.291 1708.15 278.868 1711.02 282.542C1728.8 305.298 1746.62 328.034 1764.32 350.861C1777.29 367.601 1790.1 384.47 1802.99 401.641C1736.31 402 1669.62 402 1602.47 402Z" fill="white"/>
<path d="M12.9525 162.891C17.0773 158.318 21.2022 153.744 25.8781 149.326C28.0079 149.444 29.7482 149.83 31.1381 149.298C37.9826 146.682 44.786 143.938 51.4695 140.94C52.6416 140.414 53.1732 138.461 54.0005 137.167C62.5368 137.177 71.0731 137.188 79.8225 137.936C80.5297 139.366 81.0237 140.058 81.5177 140.75C82.0467 139.89 82.5756 139.03 83.1046 138.169C83.6251 138.308 84.1456 138.447 84.8384 139.218C86.4904 140.896 87.8416 142.255 89.4753 142.925C93.4911 144.572 97.6316 145.917 101.733 147.352C103.582 147.999 105.457 148.57 107.32 149.175C107.616 148.65 107.911 148.126 108.207 147.601C107.194 146.734 106.18 145.867 105.167 145C105.167 143.186 105.167 141.371 105.167 139.279C114.617 139.279 124.024 139.279 134 139.279C134 141.105 134 142.876 134 144.647C134 177.439 134.242 210.235 133.818 243.022C133.721 250.544 131.859 258.181 129.848 265.501C127.991 272.259 125.812 279.288 122.066 285.095C113.864 297.812 101.663 305.706 86.8699 308.852C75.5973 311.25 64.1828 311.05 52.577 310.369C40.0257 309.632 28.0166 307.279 16.0857 303.875C14.5633 303.441 13.3711 301.849 12.4875 300.395C14.0027 299.072 15.5923 298.342 16.0126 297.188C17.4506 293.237 18.4779 289.137 19.7422 284.82C24.6582 286.066 29.1369 287.057 33.518 288.373C35.8373 289.069 37.0462 288.769 37.0995 286.169C37.6166 286.307 38.1337 286.444 38.8295 287.216C39.5434 288.466 40.0787 289.081 40.6139 289.697C41.1116 288.854 41.6092 288.012 42.1069 287.169C42.6252 287.308 43.1435 287.447 43.8313 288.192C44.5308 289.452 45.0607 290.105 45.5907 290.759C46.0606 289.895 46.5306 289.03 47.0005 288.166C52.2218 288.444 57.4647 289.165 62.6598 288.91C74.5802 288.327 85.6613 285.249 94.9886 276.102C97.1271 275.502 99.1573 275.452 99.8495 274.464C101.878 271.569 103.449 268.338 105.059 265.167C106.678 261.979 105.738 259.833 102.167 259C102.248 257.983 102.329 256.967 102.411 255.951C101.071 256.039 99.6308 255.84 98.4089 256.266C93.1322 258.107 88.0211 260.488 82.6622 262.013C71.4391 265.208 60.1089 264.487 48.3431 261.563C42.2687 258.528 36.6905 255.897 31.0794 253.337C30.8666 253.24 30.337 253.838 29.955 254.111C24.6914 249.629 19.4278 245.147 14.3052 240.15C14.1902 238.664 14.0738 237.627 13.6556 236.732C10.6319 230.256 7.04995 223.98 4.74114 217.264C3.88928 214.786 4.48943 212.27 1 212C1 204.646 1 197.291 1.40174 189.467C2.89526 188.122 4.49054 187.472 4.99544 186.337C7.84619 179.928 10.5103 173.432 13.0427 166.889C13.4874 165.74 13.0061 164.233 12.9525 162.891ZM46.1245 232.621C47.1135 233.061 48.1025 233.5 49.0109 233.981C49.0109 233.981 49.0558 233.903 49.1224 234.612C53.0855 236.68 57.0285 238.791 61.0709 240.69C61.274 240.786 62.3377 239.05 63.7702 238.024C65.1941 238.311 66.618 238.598 68.0296 239.609C69.0054 244.864 73.6333 237.917 75.5107 241.776C75.674 240.573 75.8373 239.37 76.793 238.024C77.862 238.071 78.9311 238.119 80.0974 238.851C83.0863 242.164 86.8085 239.672 89.4221 238.972C94.3473 237.654 98.8152 234.536 103.345 231.942C103.936 231.604 103.769 229.94 104.26 228.229C104.761 227.295 105.704 226.356 105.695 225.427C105.535 209.957 104.811 194.474 105.287 179.028C105.423 174.63 104.158 172.801 100.97 170.362C99.0354 166.6 92.2517 163.343 87.1271 164.013C78.7685 162.123 70.4884 161.618 61.8382 162.81C50.0635 164.433 42.2413 171.419 34.984 179.715C29.6428 185.822 28.6497 193.067 28.8922 200.916C29.1287 208.573 30.2214 215.836 35.0634 221.952C37.3612 224.854 40.3309 227.224 43.0914 230.566C44.0914 231.024 45.0914 231.482 46.0108 231.981C46.0108 231.981 46.056 231.903 46.1245 232.621Z" fill="#6E0AD6"/>
<path d="M1793.53 1C1788.53 8.30015 1783.17 15.676 1777.58 22.8829C1768.87 34.1208 1759.98 45.2187 1751.22 56.4221C1740.87 69.6703 1730.56 82.9555 1720.27 96.2485C1714.47 103.731 1708.74 111.261 1702.31 119.646C1696.08 112.053 1690.04 104.94 1684.29 97.6097C1675.41 86.3069 1666.74 74.8401 1657.95 63.4703C1647.55 50.0249 1637.11 36.6063 1626.69 23.1802C1621.14 16.0273 1615.57 8.8829 1610.01 1.36734C1671.02 1.00002 1732.04 1.00002 1793.53 1Z" fill="white"/>
<path d="M12.5904 162.946C13.0061 164.233 13.4874 165.74 13.0427 166.889C10.5103 173.432 7.84619 179.928 4.99544 186.337C4.49054 187.472 2.89526 188.123 1.40174 188.998C0.999999 187.611 0.999999 186.222 1 184.417C1.66968 182.849 2.38032 181.72 3.00213 180.544C6.09042 174.703 9.15529 168.849 12.5904 162.946Z" fill="#6E0AD6"/>
<path d="M1 212.417C4.48943 212.27 3.88928 214.787 4.74114 217.265C7.04995 223.981 10.6319 230.257 13.6556 236.732C14.0738 237.628 14.1902 238.664 14.1693 239.842C10.2653 233.283 6.63678 226.518 3.01285 219.751C2.56529 218.915 2.14215 218.066 1.35384 217.112C1 215.611 1 214.222 1 212.417Z" fill="#6E0AD6"/>
<path d="M566.784 214.45C564.933 226.04 560.661 236.235 553.471 244.814C546.372 253.286 537.815 260.042 527.192 264.135C516.402 268.294 505.18 269.133 494.173 267.706C483.57 266.332 473.281 262.538 462.886 259.815C462.886 282.247 462.886 305.856 462.886 329.731C453.241 329.731 443.852 329.731 434.234 329.731C434.234 266.181 434.234 202.812 434.234 139.25C443.872 139.25 453.275 139.25 462.906 139.25C462.906 141.797 462.906 144.097 462.906 146.551C468.827 144.094 474.337 141.177 480.2 139.481C511.456 130.439 545.216 139.996 561.418 172.979C565.027 180.326 567.278 188.156 567.031 196.538C566.859 202.364 566.967 208.197 566.784 214.45ZM529.023 176.53C526.379 174.024 524.009 171.123 521.046 169.08C504.617 157.75 481.811 160.736 466.578 171.966C464.112 173.785 462.829 176.042 462.889 179.525C463.15 194.662 463.18 209.81 462.882 224.945C462.802 229.002 464.369 231.599 467.308 233.664C475.934 239.724 485.674 242.784 496.118 242.922C510.437 243.112 522.476 238.078 531.288 226.256C541.818 212.13 541.622 190.437 529.023 176.53Z" fill="#6E0AD6"/>
<path d="M720.002 237.98C708.188 254.311 692.785 265.293 673.077 267.66C650.372 270.387 629.007 266.386 611.678 249.325C602.349 240.141 595.111 229.86 592.563 216.985C588.284 195.359 592.465 175.878 608.042 159.34C617.391 149.415 628.156 142.145 641.443 138.925C667.103 132.707 690.141 137.247 710.029 155.455C724.898 169.068 731.815 185.95 730.86 205.814C730.31 217.252 727.595 228.356 720.002 237.98ZM697.079 221.529C706.555 205.274 702.841 186.284 690.532 174.28C680.346 164.347 667.917 159.988 653.304 162.922C630.864 167.427 616.459 185.62 620.246 209.666C623.364 229.465 640.181 242.125 660.023 242.834C676.044 243.405 688.071 235.293 697.079 221.529Z" fill="#6E0AD6"/>
<path d="M335.92 268C325.386 268.245 315.406 268.16 305.819 264.397C290.968 258.57 282.284 247.569 279.1 232.236C277.843 226.183 277.146 219.909 277.091 213.728C276.868 189.079 276.999 164.427 276.999 139.388C286.176 139.388 295.236 139.388 304.999 139.388C304.999 140.954 304.999 142.708 304.999 144.462C304.999 164.952 304.768 185.446 305.138 205.929C305.251 212.199 306.234 218.695 308.189 224.637C311.503 234.711 318.913 240.313 329.654 242.121C341.906 244.182 352.79 241.169 363.309 235.318C367.265 233.118 369.155 230.377 369.112 225.513C368.876 198.695 368.999 171.874 368.999 145.055C368.999 143.245 368.999 141.436 368.999 139.314C378.664 139.314 388.054 139.314 397.723 139.314C397.723 181.734 397.723 224.111 397.723 266.744C388.207 266.744 378.813 266.744 369.007 266.744C369.007 263.802 369.007 261.058 369.007 257.665C358.522 263.726 348.189 268.273 335.92 268Z" fill="#6E0AD6"/>
<path d="M170 189C170 172.203 170 155.906 170 139.306C179.682 139.306 189.071 139.306 198.774 139.306C198.774 144.964 198.774 150.572 198.774 156.18C199.091 156.358 199.408 156.535 199.725 156.712C200.789 155.343 201.774 153.904 202.928 152.616C211.1 143.492 220.887 137.469 233.478 137.015C236.823 136.895 240.219 136.639 243.515 137.053C251.282 138.027 251.354 138.179 250.974 145.803C250.596 153.38 250.011 160.946 249.501 168.761C240.694 166.574 231.644 165.424 222.563 168.013C208.382 172.056 200.654 185.243 200.145 197.594C199.284 218.486 199.331 239.415 199.004 260.329C198.973 262.316 199 264.304 199 266.644C189.423 266.644 180.033 266.644 170 266.644C170 240.99 170 215.245 170 189Z" fill="#6E0AD6"/>
<path d="M36.7482 286.096C37.047 288.769 35.8381 289.069 33.5188 288.373C29.1376 287.057 24.659 286.067 19.7429 284.82C18.4787 289.137 17.4514 293.237 16.0134 297.188C15.5931 298.343 14.0034 299.072 12.5586 299.998C13.7918 293.647 15.4162 287.294 17.0115 281.054C23.9148 282.823 30.1555 284.423 36.7482 286.096Z" fill="#6E0AD6"/>
<path d="M53.6078 137.104C53.1746 138.461 52.643 140.414 51.4709 140.94C44.7873 143.938 37.9839 146.682 31.1395 149.298C29.7496 149.83 28.0092 149.444 26.1914 149.187C32.8937 142.91 41.199 139.939 49.9738 137.991C51.0699 137.748 52.1345 137.362 53.6078 137.104Z" fill="#6E0AD6"/>
<path d="M102.096 259.417C105.738 259.833 106.678 261.979 105.059 265.167C103.449 268.338 101.878 271.569 99.8495 274.464C99.1573 275.452 97.1271 275.503 95.2969 275.969C98.141 270.971 102.52 266.482 102.096 259.417Z" fill="#6E0AD6"/>
<path d="M105.088 145.334C106.18 145.867 107.193 146.734 108.207 147.601C107.911 148.126 107.616 148.65 107.32 149.175C105.457 148.569 103.581 147.999 101.733 147.352C97.6313 145.917 93.4909 144.572 89.475 142.925C87.8413 142.255 86.4901 140.895 85.043 139.408C90.1522 140.885 95.2096 142.858 100.318 144.689C101.807 145.223 103.442 145.353 105.088 145.334Z" fill="#6E0AD6"/>
<path d="M30.1172 254.424C30.3364 253.838 30.8661 253.24 31.0788 253.337C36.6899 255.897 42.2682 258.528 47.9251 261.49C42.0921 259.467 36.1861 257.101 30.1172 254.424Z" fill="#6E0AD6"/>
<path d="M82.8053 138.097C82.576 139.03 82.047 139.89 81.518 140.751C81.024 140.059 80.53 139.366 80.0391 138.28C80.8633 137.931 81.6845 137.978 82.8053 138.097Z" fill="#6E0AD6"/>
<path d="M41.8582 287.097C41.6095 288.011 41.1118 288.854 40.6142 289.696C40.0789 289.081 39.5437 288.466 39.0352 287.402C39.911 286.977 40.7602 287.001 41.8582 287.097Z" fill="#6E0AD6"/>
<path d="M46.7104 288.096C46.5295 289.031 46.0596 289.895 45.5896 290.759C45.0597 290.106 44.5297 289.452 44.0352 288.38C44.8542 287.983 45.6378 288.004 46.7104 288.096Z" fill="#6E0AD6"/>
<path d="M900.006 179.135C903.515 168.786 905.987 158.345 910.722 149.059C924.389 122.255 945.519 103.42 973.958 92.8887C985.249 88.7073 996.731 86.5409 1008.76 85.8873C1037.72 84.3128 1063.43 93.0912 1085.88 110.662C1107.09 127.265 1121.01 149.286 1126.77 175.691C1129.13 186.497 1130.43 197.938 1129.71 208.926C1128.06 234.021 1119.1 256.501 1102.64 276.035C1086.14 295.621 1065.47 308.187 1040.98 314.422C1016.13 320.747 991.867 318.193 968.224 308.123C952.227 301.309 938.585 291.337 927.159 278.499C913.05 262.644 903.489 244.21 900.156 223.127C898.569 213.094 898.392 202.802 898.132 192.613C898.021 188.284 899.335 183.919 900.006 179.135Z" fill="white"/>
<path d="M68.0422 238.885C66.6183 238.598 65.1945 238.311 62.9927 238.023C57.8286 236.649 53.4424 235.276 49.0562 233.903C49.0562 233.903 49.0113 233.981 48.9238 233.659C47.9097 232.859 46.983 232.381 46.0563 231.903C46.0563 231.903 46.0112 231.982 45.9201 231.655C44.8848 230.831 43.9407 230.333 42.9965 229.835C40.3312 227.224 37.3615 224.854 35.0638 221.952C30.2217 215.836 29.1291 208.573 28.8926 200.917C28.6501 193.067 29.6431 185.822 34.9844 179.715C42.2417 171.419 50.0639 164.433 61.8385 162.81C70.4887 161.618 78.7688 162.123 87.719 164.383C92.5263 166.873 96.7421 168.994 100.958 171.114C104.158 172.801 105.423 174.63 105.287 179.028C104.811 194.474 105.536 209.957 105.695 225.427C105.705 226.356 104.761 227.295 103.734 228.607C95.4721 232.046 87.7363 235.106 80.0006 238.167C78.9315 238.119 77.8624 238.071 75.9956 238.034C72.8127 238.325 70.4274 238.605 68.0422 238.885Z" fill="white"/>
<path d="M80.0469 238.509C87.7341 235.107 95.4698 232.046 103.578 228.938C103.767 229.941 103.934 231.604 103.343 231.943C98.8133 234.537 94.3454 237.654 89.4202 238.973C86.8066 239.672 83.0844 242.164 80.0469 238.509Z" fill="#6E0AD6"/>
<path d="M49.0898 234.257C53.4428 235.276 57.829 236.649 62.6083 238.095C62.3384 239.05 61.2748 240.786 61.0717 240.69C57.0293 238.791 53.0862 236.68 49.0898 234.257Z" fill="#6E0AD6"/>
<path d="M100.963 170.738C96.7412 168.993 92.5255 166.873 88.1328 164.432C92.2512 163.343 99.0349 166.6 100.963 170.738Z" fill="#6E0AD6"/>
<path d="M68.0352 239.247C70.4265 238.605 72.8118 238.325 75.5985 238.105C75.8367 239.369 75.6734 240.573 75.5101 241.776C73.6327 237.917 69.0048 244.864 68.0352 239.247Z" fill="#6E0AD6"/>
<path d="M43.043 230.201C43.9395 230.333 44.8837 230.831 45.9592 231.634C45.0906 231.482 44.0906 231.024 43.043 230.201Z" fill="#6E0AD6"/>
<path d="M46.0898 232.262C46.9823 232.381 47.9089 232.859 48.9633 233.638C48.1021 233.501 47.1131 233.061 46.0898 232.262Z" fill="#6E0AD6"/>
<path d="M529.282 176.779C541.622 190.437 541.818 212.13 531.288 226.256C522.476 238.078 510.437 243.112 496.118 242.922C485.674 242.784 475.934 239.724 467.308 233.664C464.368 231.599 462.802 229.002 462.882 224.945C463.18 209.81 463.15 194.662 462.889 179.525C462.829 176.042 464.112 173.785 466.578 171.966C481.811 160.736 504.617 157.75 521.046 169.08C524.009 171.123 526.379 174.024 529.282 176.779Z" fill="white"/>
<path d="M697.017 221.899C688.073 235.293 676.045 243.405 660.024 242.834C640.183 242.126 623.365 229.465 620.248 209.666C616.461 185.62 630.866 167.428 653.306 162.922C667.918 159.988 680.348 164.347 690.534 174.28C702.842 186.284 706.557 205.275 697.017 221.899Z" fill="white"/>
</g>
<defs>
<clipPath id="clip0_1259_25773">
<rect width="1920" height="401" fill="white"/>
</clipPath>
</defs>
</svg>
